<?xml version="1.0" encoding="UTF-8"?>
<svg version="1.1" xmlns="http://www.w3.org/2000/svg" width="888" height="119">
<path d="M0 0 C4.95834771 0.00185607 9.91668234 -0.00002433 14.87502851 -0.00420883 C15.59376669 -0.00480401 16.31250487 -0.0053992 17.05302299 -0.00601243 C18.51546934 -0.0072248 19.97791569 -0.00843893 21.44036204 -0.00965481 C35.01704646 -0.02041805 48.59370576 -0.01842274 62.1703915 -0.01226996 C74.43174903 -0.00711856 86.69302668 -0.01832963 98.95436845 -0.03736818 C111.71498239 -0.05702123 124.47555911 -0.06495513 137.23618819 -0.06124493 C144.33168203 -0.05937263 151.42710759 -0.06150193 158.52258863 -0.07595947 C209.96040656 -0.1746039 261.10962291 1.98774557 312.32673826 6.84142373 C313.52216749 6.95354195 314.71759672 7.06566018 315.94925107 7.18117592 C331.28375244 8.6290656 346.61166963 10.14407393 361.93559064 11.69968484 C364.15095538 11.92419413 366.36647205 12.14715109 368.5820178 12.36986611 C411.7655668 16.72415253 411.7655668 16.72415253 421.68220701 22.30236123 C422.57502126 22.79359978 422.57502126 22.79359978 423.48587217 23.29476235 C426.03237856 24.99105452 427.51395562 26.59615809 428.2266406 29.58751748 C428.45583098 32.35222297 428.45170039 35.02984073 428.36970701 37.80236123 C428.38453123 38.73950967 428.39935544 39.6766581 428.41462888 40.64220498 C428.35838695 45.306977 428.21660427 47.60046631 425.32673826 51.39611123 C415.65787158 58.36569312 396.47266811 53.71781227 385.11970701 52.73986123 C384.10778287 52.65477303 383.09585874 52.56968484 382.05327024 52.48201821 C364.9458374 51.04044983 347.87087561 49.32147688 330.79581823 47.54559491 C284.82587028 42.76473275 238.84546592 38.9502928 192.68220701 36.55236123 C191.54482084 36.49310464 190.40743467 36.43384804 189.23558225 36.3727958 C157.11006932 34.72748663 125.03199466 34.09559028 92.86970701 34.11486123 C91.97951997 34.11498082 91.08933294 34.11510041 90.17217054 34.11522362 C60.57716098 34.12023228 31.04881493 34.5132005 1.49171628 36.14739297 C-1.29530988 36.30112109 -4.08262157 36.44840095 -6.87003909 36.5948417 C-117.33519665 42.50341321 -228.57066438 58.82512309 -398.28410159 109.56676552 C-414.23426395 115.14342311 -429.15906859 120.06200097 -446.25529299 119.67736123 C-447.40191409 119.67607217 -448.54853518 119.6747831 -449.72990237 119.67345498 C-458.03510471 119.58504951 -458.03510471 119.58504951 -460.31779299 117.30236123 C-461.73547997 109.17199107 -462.87846721 97.56828793 -458.52873049 90.32189248 C-455.58330546 88.18349566 -452.64166288 86.79151194 -449.31779299 85.30236123 C-447.05978012 84.01072565 -444.84023081 82.66286959 -442.61491213 81.31578896 C-439.33737112 79.35243585 -436.00880918 77.48654337 -432.67423831 75.62218545 C-431.21125754 74.80278284 -429.75159328 73.9773916 -428.29728518 73.14269326 C-359.71584931 33.79413864 -274.70778807 20.48138244 -118.88029299 3.61486123 C-118.09604952 3.55996529 -117.31180605 3.50506936 -116.50379763 3.44850991 C-111.32651009 3.09233709 -106.14726018 2.79195132 -100.96566496 2.50601552 C-98.40550791 2.36308644 -95.84579281 2.21626037 -93.28612433 2.06516049 C-62.19118182 0.24969999 -31.14111297 -0.0119764 0 0 Z " fill="#F8D509" transform="translate(460.3177929930389,-0.30236122757196426)"/>
</svg>
